<?xml version="1.0" encoding="utf-8"?>
<!-- Generator: Adobe Illustrator 26.0.3, SVG Export Plug-In . SVG Version: 6.00 Build 0)  -->
<svg version="1.1" xmlns="http://www.w3.org/2000/svg" xmlns:xlink="http://www.w3.org/1999/xlink" x="0px" y="0px"
	 viewBox="0 0 500 160" style="enable-background:new 0 0 500 160;" xml:space="preserve">
<g id="Layer_1">
	<g>
		<path d="M73.7,93.1c-2.1-0.9-3.9-2.2-5.5-3.8c-1.6-1.6-2.8-3.5-3.8-5.6c-0.9-2.1-1.4-4.5-1.4-6.9c0-2.5,0.5-4.8,1.4-6.9
			c0.9-2.2,2.2-4,3.8-5.6c1.6-1.6,3.4-2.8,5.5-3.8c2.1-0.9,4.4-1.4,6.8-1.4c2.4,0,4.7,0.5,6.8,1.4c2.1,0.9,3.9,2.2,5.5,3.8
			c1.6,1.6,2.8,3.5,3.8,5.6c0.9,2.2,1.4,4.5,1.4,6.9c0,2.5-0.5,4.8-1.4,6.9c-0.9,2.2-2.2,4-3.8,5.6c-0.4,0.4-0.9,0.8-1.3,1.2h15.3
			c0.5-0.7,1-1.5,1.4-2.3c0.9-1.7,1.6-3.5,2.1-5.5c0.5-1.9,0.7-3.9,0.7-6c0-4.3-0.8-8.2-2.4-11.8c-1.6-3.6-3.8-6.7-6.5-9.2
			c-2.7-2.6-6-4.6-9.7-6c-3.7-1.5-7.7-2.2-11.9-2.2c-4.2,0-8.2,0.7-11.9,2.1c-3.7,1.4-6.9,3.4-9.7,6c-2.7,2.6-4.9,5.7-6.5,9.3
			c-1.6,3.6-2.4,7.6-2.4,11.9c0,4.6,0.8,8.7,2.3,12.3c1.6,3.6,3.7,6.7,6.5,9.2c2.7,2.5,6,4.4,9.8,5.8c3.8,1.3,7.9,2,12.4,2h34.6
			v-1.4v-8.3v-0.6C105.9,95.8,80.8,96.4,73.7,93.1z"/>
		<path d="M158,106.1h-11.6v-5.3h-0.2c-0.4,0.8-1,1.5-1.7,2.3c-0.7,0.8-1.5,1.4-2.5,2c-1,0.6-2.1,1.1-3.3,1.5
			c-1.2,0.4-2.6,0.6-4,0.6c-3.1,0-5.6-0.5-7.5-1.4c-1.9-0.9-3.4-2.2-4.4-3.9c-1-1.7-1.7-3.6-2.1-5.9c-0.4-2.3-0.5-4.7-0.5-7.3V66.9
			h12.1v19.2c0,1.1,0,2.3,0.1,3.5c0.1,1.2,0.3,2.3,0.7,3.3c0.4,1,1,1.9,1.9,2.5c0.8,0.6,2,1,3.6,1c1.6,0,2.8-0.3,3.8-0.8
			s1.7-1.3,2.2-2.3c0.5-0.9,0.8-2,1-3.2c0.2-1.2,0.2-2.4,0.2-3.7V66.9H158V106.1z"/>
		<path d="M164.1,54.5c0-1.9,0.7-3.6,2.1-5c1.4-1.4,3-2.1,5-2.1c1.9,0,3.6,0.7,5,2.1c1.4,1.4,2.1,3,2.1,5s-0.7,3.6-2.1,5
			c-1.4,1.4-3,2.1-5,2.1c-1.9,0-3.6-0.7-5-2.1C164.8,58.1,164.1,56.5,164.1,54.5z M165.1,66.9h12.1v39.2h-12.1V66.9z"/>
		<path d="M210.8,79.5c-0.6-0.9-1.4-1.6-2.5-2.1c-1.1-0.6-2.2-0.8-3.5-0.8c-3.1,0-5.4,0.9-7.1,2.7c-1.7,1.8-2.5,4.2-2.5,7.2
			c0,3,0.8,5.4,2.5,7.2c1.7,1.8,4.1,2.7,7.1,2.7c1.3,0,2.5-0.3,3.5-0.9c1-0.6,1.8-1.3,2.5-2.1l8,8.4c-1.9,1.9-4.1,3.3-6.7,4.1
			c-2.6,0.8-5,1.2-7.3,1.2c-3,0-5.8-0.5-8.5-1.5c-2.7-1-5-2.4-6.9-4.2c-2-1.8-3.5-4-4.6-6.5c-1.1-2.5-1.7-5.3-1.7-8.5
			c0-3.1,0.6-5.9,1.7-8.5c1.1-2.5,2.7-4.7,4.6-6.5c2-1.8,4.3-3.2,6.9-4.2c2.7-1,5.5-1.5,8.5-1.5c2.3,0,4.7,0.4,7.3,1.2
			c2.6,0.8,4.8,2.1,6.7,4.1L210.8,79.5z"/>
		<path d="M223.1,45.1h12.1v37.3l13.4-15.5h14.8l-15.6,17.7l16,21.5h-15.2l-13.2-19.8h-0.2v19.8h-12.1V45.1z"/>
		<path d="M318.5,97.1c-2.7,3.7-5.9,6.4-9.5,8c-3.6,1.6-7.5,2.4-11.7,2.4c-4.4,0-8.3-0.7-12-2.2s-6.7-3.5-9.3-6.2
			c-2.6-2.7-4.6-5.8-6-9.5c-1.5-3.7-2.2-7.7-2.2-12.1c0-4.4,0.7-8.4,2.2-12c1.5-3.7,3.5-6.8,6-9.5c2.6-2.7,5.7-4.7,9.3-6.3
			c3.6-1.5,7.6-2.3,12-2.3c3.9,0,7.5,0.7,10.8,2.1c3.4,1.4,6.3,3.7,8.8,6.9l-4.4,3.6c-1.8-2.7-4-4.6-6.8-5.9
			c-2.8-1.2-5.6-1.9-8.5-1.9c-3.7,0-7.1,0.6-10,1.9s-5.5,3.1-7.6,5.3c-2.1,2.3-3.7,4.9-4.8,8c-1.1,3.1-1.7,6.4-1.7,9.9
			c0,3.5,0.6,6.9,1.7,9.9c1.1,3.1,2.7,5.7,4.8,8c2.1,2.3,4.6,4,7.6,5.3c3,1.3,6.3,1.9,10,1.9c1.4,0,3-0.2,4.5-0.5
			c1.6-0.3,3.1-0.9,4.6-1.6c1.5-0.7,2.9-1.6,4.2-2.7c1.3-1.1,2.5-2.4,3.5-4L318.5,97.1z"/>
		<path d="M335.8,117.6c-0.9,2.4-2.2,4.3-3.8,5.7c-1.6,1.4-3.8,2.1-6.5,2.1c-0.8,0-1.6-0.1-2.4-0.2c-0.8-0.1-1.6-0.3-2.3-0.5
			l0.5-4.5c0.7,0.2,1.4,0.4,2.1,0.6c0.7,0.2,1.5,0.3,2.2,0.3c0.9,0,1.6-0.2,2.3-0.6c0.7-0.4,1.2-0.9,1.7-1.5c0.5-0.6,0.9-1.2,1.2-2
			c0.3-0.7,0.7-1.5,0.9-2.2l3.4-8.6l-15.2-37.4h5.4l12.3,31.4l12-31.4h5.2L335.8,117.6z"/>
		<path d="M392.3,100.6c-1.8,2.2-3.9,3.8-6.2,4.9c-2.3,1-4.8,1.6-7.5,1.6c-2.9,0-5.5-0.5-7.9-1.5c-2.4-1-4.5-2.3-6.2-4.1
			c-1.7-1.7-3.1-3.8-4-6.2c-1-2.4-1.5-5-1.5-7.9c0-2.8,0.5-5.5,1.5-7.9c1-2.4,2.3-4.5,4-6.2c1.7-1.7,3.8-3.1,6.2-4.1
			c2.4-1,5.1-1.5,7.9-1.5c2.7,0,5.3,0.6,7.6,1.7c2.3,1.1,4.4,2.7,6.3,4.8l-3.9,2.9c-1.4-1.6-2.9-2.8-4.6-3.7
			c-1.7-0.9-3.5-1.3-5.4-1.3c-2.3,0-4.3,0.4-6.1,1.2c-1.8,0.8-3.4,1.9-4.7,3.3c-1.3,1.4-2.3,3-2.9,4.8c-0.7,1.9-1,3.8-1,5.9
			c0,2.1,0.3,4.1,1,5.9c0.7,1.9,1.7,3.5,2.9,4.8s2.8,2.5,4.7,3.3c1.8,0.8,3.9,1.2,6.1,1.2c2,0,3.9-0.5,5.6-1.4
			c1.7-0.9,3.2-2.2,4.4-3.8L392.3,100.6z"/>
		<path d="M400.6,45.1h4.8v61h-4.8V45.1z"/>
		<path d="M450,85.2c0-2.1-0.4-4.3-1.1-6.4c-0.8-2.1-1.9-4-3.3-5.6c-1.5-1.6-3.3-3-5.5-4c-2.2-1-4.7-1.5-7.5-1.5
			c-2.7,0-5.2,0.5-7.5,1.5c-2.3,1-4.2,2.4-5.9,4.1c-1.7,1.7-3,3.8-3.9,6.2c-0.9,2.4-1.4,4.9-1.4,7.7c0,2.9,0.4,5.6,1.3,7.9
			c0.9,2.4,2.2,4.5,3.8,6.2c1.7,1.7,3.7,3.1,6,4.1c2.3,1,4.9,1.5,7.7,1.5c3.3,0,6.4-0.6,9.2-1.9c2.8-1.2,5.1-3.3,7-6.1l-3.5-3
			c-1.2,2-3,3.7-5.3,4.8c-2.3,1.2-4.7,1.8-7.2,1.8c-2.9,0-5.2-0.5-7-1.6c-1.8-1.1-3.2-2.4-4.3-3.9c-1-1.4-1.6-2.7-2.1-4.2
			c0,0,0-0.1-0.1-0.1c-0.8-2.9-0.9-3.8-0.9-6.3c0-1,0.1-1.8,0.2-2.5c0-0.3,0.1-0.8,0.3-1.4c0,0,0-0.1,0-0.1c0-0.1,0-0.1,0.1-0.2
			c0.1-0.3,0.2-0.5,0.2-0.8c0.4-1.3,1.2-2.7,2.2-4.1c1-1.4,2.4-2.6,4.2-3.7c1.7-1.1,3.9-1.6,6.6-1.6c1.8,0,3.5,0.3,5,1
			c1.6,0.6,3,1.5,4.1,2.6c1.2,1.1,2.1,2.4,2.7,3.8c0.7,1.5,1,3,1,4.7H425v4.4h25V85.2z"/>
	</g>
</g>
<g id="Layer_2">
</g>
</svg>
